<svg id="Camada_1" data-name="Camada 1" xmlns="http://www.w3.org/2000/svg" viewBox="0 0 128 96"><defs><style>.cls-1{fill:#fff;}.cls-2,.cls-4{fill:#f2f2f2;}.cls-2,.cls-3{stroke:#999;stroke-miterlimit:10;}.cls-3{fill:#ccc;}</style></defs><title>layout-header-default</title><rect class="cls-1" width="128" height="96"/><rect class="cls-1" width="128" height="96"/><rect class="cls-2" x="4" y="3" width="120" height="90" rx="2" ry="2"/><path class="cls-3" d="M122,3H6A2,2,0,0,0,4,5V24H124V5A2,2,0,0,0,122,3Z"/><path class="cls-4" d="M19.25,8.5a5,5,0,1,0,5,5A5,5,0,0,0,19.25,8.5Z"/><rect class="cls-4" x="33.75" y="12.5" width="10" height="2"/><rect class="cls-4" x="78.75" y="12.5" width="10" height="2"/><rect class="cls-4" x="45.75" y="12.5" width="9" height="2"/><rect class="cls-4" x="56.75" y="12.5" width="10" height="2"/><rect class="cls-4" x="68.75" y="12.5" width="8" height="2"/></svg>